<?xml version="1.0" standalone="no"?>
<!DOCTYPE svg PUBLIC "-//W3C//DTD SVG 20010904//EN"
 "http://www.w3.org/TR/2001/REC-SVG-20010904/DTD/svg10.dtd">
<svg version="1.0" xmlns="http://www.w3.org/2000/svg"
 width="734.000000pt" height="462.000000pt" viewBox="0 0 734.000000 462.000000"
 preserveAspectRatio="xMidYMid meet">

<g transform="translate(0.000000,462.000000) scale(0.100000,-0.100000)"
fill="#000000" stroke="none">
<path d="M3300 4215 c-150 -34 -232 -59 -360 -110 -91 -37 -169 -70 -174 -75
-5 -5 44 11 110 36 277 105 390 137 599 169 61 10 112 19 114 21 17 16 -126
-5 -289 -41z"/>
<path d="M3988 4223 c6 -2 18 -2 25 0 6 3 1 5 -13 5 -14 0 -19 -2 -12 -5z"/>
<path d="M4045 4210 c11 -5 27 -9 35 -9 9 0 8 4 -5 9 -11 5 -27 9 -35 9 -9 0
-8 -4 5 -9z"/>
<path d="M3487 4151 c-34 -33 -59 -62 -56 -65 3 -3 34 24 69 59 81 81 70 86
-13 6z"/>
<path d="M3943 4170 c9 -14 26 -42 38 -63 11 -22 23 -37 25 -34 9 8 -32 80
-57 102 l-23 20 17 -25z"/>
<path d="M4240 4143 c19 -9 85 -40 145 -68 320 -150 530 -357 693 -681 98
-194 172 -459 172 -612 l0 -80 -142 -8 c-79 -4 -179 -6 -223 -4 -92 5 -183 5
-485 1 -118 -1 -267 2 -330 8 -63 6 -275 13 -470 16 -195 3 -409 10 -475 16
-66 6 -156 9 -200 8 -44 -2 -156 2 -250 9 -257 18 -504 32 -558 32 l-49 0 7
43 c17 107 58 330 76 405 22 97 23 106 4 72 -12 -24 -76 -328 -90 -430 -3 -25
-7 -110 -9 -190 -2 -80 -9 -165 -16 -189 -15 -56 -6 -107 24 -126 12 -8 87
-28 167 -44 79 -16 176 -36 214 -45 39 -8 108 -17 155 -20 47 -2 132 -9 190
-15 331 -35 469 -44 755 -47 171 -1 340 -6 376 -9 37 -3 95 -1 130 4 35 6 177
13 314 16 493 10 703 22 810 45 58 13 108 29 118 40 24 22 24 60 3 230 -10 74
-19 187 -21 250 -11 432 -295 955 -646 1190 -129 86 -310 175 -394 193 -29 6
-29 6 5 -10z"/>
<path d="M3272 4058 c-37 -56 -44 -68 -38 -68 2 0 17 19 33 43 40 59 45 67 39
67 -3 0 -18 -19 -34 -42z"/>
<path d="M4267 4065 c12 -8 38 -34 57 -57 20 -23 36 -37 36 -31 0 14 -89 103
-103 103 -6 0 -2 -7 10 -15z"/>
<path d="M3039 4012 c-56 -70 -70 -94 -40 -67 28 24 95 114 89 120 -2 2 -24
-22 -49 -53z"/>
<path d="M4195 4013 c36 -55 45 -67 45 -58 0 13 -48 85 -57 85 -3 0 3 -12 12
-27z"/>
<path d="M2674 3984 c-18 -14 -18 -14 6 -3 31 14 36 19 24 19 -6 0 -19 -7 -30
-16z"/>
<path d="M2544 3905 c-27 -19 -45 -35 -41 -35 9 0 97 61 97 67 0 7 -8 2 -56
-32z"/>
<path d="M4571 3865 c45 -79 79 -130 79 -120 0 13 -54 104 -81 135 -20 24 -20
23 2 -15z"/>
<path d="M4420 3882 c0 -5 16 -40 35 -78 42 -84 47 -64 5 24 -27 57 -40 75
-40 54z"/>
<path d="M2424 3805 c-38 -39 -71 -85 -61 -85 2 0 29 29 61 65 65 74 65 88 0
20z"/>
<path d="M4300 3828 c0 -12 71 -150 76 -145 6 5 -40 107 -60 132 -8 11 -16 17
-16 13z"/>
<path d="M4066 3713 c13 -32 24 -69 24 -83 0 -14 5 -32 11 -40 20 -28 -1 72
-26 128 -32 70 -39 66 -9 -5z"/>
<path d="M2777 3723 c-35 -56 -47 -80 -47 -95 0 -7 6 -2 13 12 7 14 26 46 41
73 33 56 27 64 -7 10z"/>
<path d="M2560 3685 c-29 -47 -22 -54 9 -9 13 19 21 37 19 40 -3 3 -16 -11
-28 -31z"/>
<path d="M4843 3610 c13 -39 70 -160 74 -156 6 6 -43 122 -62 148 -10 13 -15
16 -12 8z"/>
<path d="M4571 3600 c-1 -3 12 -57 29 -120 16 -63 29 -101 30 -85 0 36 -23
129 -44 177 -8 18 -15 31 -15 28z"/>
<path d="M4455 3560 c3 -19 10 -66 16 -104 5 -39 12 -72 16 -75 10 -10 -7 123
-22 170 -13 39 -14 40 -10 9z"/>
<path d="M4703 3545 c14 -27 28 -65 32 -83 4 -18 9 -31 12 -28 9 9 -27 113
-47 137 -19 21 -18 19 3 -26z"/>
<path d="M2601 3471 c-11 -27 -21 -60 -21 -73 0 -13 11 9 24 47 14 39 23 71
21 73 -1 1 -12 -20 -24 -47z"/>
<path d="M4250 3488 c5 -18 14 -59 20 -91 7 -32 14 -56 17 -53 8 8 -28 176
-37 176 -5 0 -5 -15 0 -32z"/>
<path d="M2230 3509 c0 -2 -9 -29 -21 -59 -11 -30 -16 -50 -11 -45 14 15 44
97 37 103 -3 3 -5 3 -5 1z"/>
<path d="M2786 3485 c-3 -9 -6 -22 -5 -28 0 -7 5 -1 10 12 5 13 8 26 5 28 -2
2 -6 -3 -10 -12z"/>
<path d="M4083 3415 c-7 -49 -11 -91 -9 -93 8 -8 27 109 24 145 -2 28 -6 14
-15 -52z"/>
<path d="M2381 3419 c-13 -28 -20 -54 -17 -57 8 -7 7 -7 33 56 27 67 13 68
-16 1z"/>
<path d="M2731 3269 c-16 -37 -41 -174 -26 -144 11 23 54 180 50 184 -3 2 -14
-16 -24 -40z"/>
<path d="M2407 3260 c-14 -36 -27 -97 -26 -120 0 -14 9 7 20 45 16 62 21 115
6 75z"/>
<path d="M2522 3234 c-20 -79 -22 -94 -14 -94 9 0 36 119 28 127 -2 3 -9 -12
-14 -33z"/>
<path d="M4998 3228 c22 -39 37 -76 52 -137 15 -58 23 -46 10 15 -13 58 -57
154 -72 154 -5 0 -1 -15 10 -32z"/>
<path d="M2292 3208 c-17 -66 -14 -93 4 -35 8 27 14 56 12 65 -2 10 -9 -4 -16
-30z"/>
<path d="M4739 3198 c-2 -24 -1 -61 2 -83 5 -29 7 -18 8 43 1 87 -5 110 -10
40z"/>
<path d="M4851 3130 c0 -78 2 -110 9 -100 11 17 11 141 0 185 -5 19 -8 -11 -9
-85z"/>
<path d="M4500 3138 c0 -18 5 -40 10 -48 7 -11 10 -2 10 33 0 26 -4 47 -10 47
-5 0 -10 -15 -10 -32z"/>
<path d="M4326 3068 c7 -34 14 -76 14 -93 0 -16 5 -37 11 -45 13 -18 3 84 -13
145 -19 66 -27 62 -12 -7z"/>
<path d="M4173 3030 c0 -25 2 -35 4 -22 2 12 2 32 0 45 -2 12 -4 2 -4 -23z"/>
<path d="M4013 2990 c0 -36 2 -50 4 -32 2 17 2 47 0 65 -2 17 -4 3 -4 -33z"/>
<path d="M4617 3023 c-9 -9 -7 -92 3 -123 6 -17 8 -2 9 53 1 77 0 83 -12 70z"/>
<path d="M5073 2935 c0 -38 2 -53 4 -32 2 20 2 52 0 70 -2 17 -4 1 -4 -38z"/>
<path d="M3657 2898 c3 -51 7 -95 9 -97 2 -2 4 37 4 87 0 50 -4 93 -9 97 -6 3
-7 -31 -4 -87z"/>
<path d="M2580 2956 c-5 -15 -12 -53 -15 -84 -5 -59 -4 -57 21 42 15 62 12 88
-6 42z"/>
<path d="M2467 2948 c-13 -54 -19 -143 -9 -133 5 6 13 43 16 83 7 70 3 94 -7
50z"/>
<path d="M3834 2885 c0 -49 1 -71 3 -48 2 23 2 64 0 90 -2 26 -3 8 -3 -42z"/>
<path d="M2316 2945 c-3 -9 -5 -38 -5 -63 2 -47 2 -47 9 13 8 62 7 78 -4 50z"/>
<path d="M2196 2928 c-3 -13 -5 -39 -5 -58 1 -27 3 -22 9 20 9 58 7 77 -4 38z"/>
<path d="M4881 2875 c1 -86 17 -119 18 -35 0 36 -4 72 -9 80 -7 11 -10 -3 -9
-45z"/>
<path d="M1955 2590 c-22 -4 -92 -15 -155 -24 -63 -10 -155 -26 -205 -37 -49
-10 -106 -19 -125 -19 -19 0 -89 -12 -155 -26 -66 -14 -167 -34 -225 -44 -262
-47 -445 -94 -557 -143 -42 -17 -53 -27 -53 -45 0 -39 18 -61 58 -68 20 -3 78
-17 127 -30 131 -35 257 -45 395 -32 l115 11 79 -39 c83 -40 89 -41 250 -35
30 1 79 -8 125 -23 93 -31 226 -62 304 -72 31 -3 57 -10 57 -14 0 -14 -96
-153 -140 -203 -28 -31 -36 -47 -26 -47 29 0 124 41 184 79 58 38 60 38 69 18
7 -14 4 -30 -9 -56 -10 -19 -18 -51 -17 -71 1 -34 1 -34 10 10 11 54 38 94 67
98 48 7 191 -165 240 -288 l22 -55 -42 50 c-56 67 -150 155 -165 155 -14 0
-33 -32 -32 -52 0 -7 5 -1 11 15 5 15 13 27 17 27 3 0 40 -34 81 -75 70 -71
73 -75 47 -75 -16 0 -42 7 -59 16 -18 9 -27 11 -23 4 10 -16 69 -40 98 -40 22
0 57 -27 57 -43 0 -4 -11 -7 -24 -7 -29 0 -56 -34 -56 -70 0 -36 51 -120 98
-162 48 -44 99 -71 106 -59 3 5 -5 12 -18 15 -35 9 -124 92 -147 138 -39 77
-19 135 40 121 40 -9 45 -19 22 -42 -31 -31 -17 -84 35 -131 26 -24 26 -23 -5
19 -34 48 -41 95 -15 105 21 8 40 -16 59 -78 8 -27 19 -54 23 -60 14 -17 75
-186 70 -191 -2 -3 -29 2 -58 11 -157 47 -299 187 -400 396 -49 100 -53 86 -6
-17 45 -98 85 -155 170 -243 75 -78 165 -135 229 -146 31 -6 37 -11 37 -33 0
-14 -9 -41 -21 -59 -23 -38 -13 -44 35 -19 16 9 31 13 34 10 3 -2 0 -33 -5
-67 -6 -35 -10 -64 -9 -65 1 -2 21 11 44 28 l42 30 56 -60 c56 -61 167 -151
186 -151 6 0 -16 19 -48 43 -138 102 -233 228 -278 369 -15 46 -45 128 -67
182 -24 59 -36 102 -30 105 9 6 2 289 -13 514 -3 43 -1 77 4 77 10 0 14 -29
30 -200 6 -63 17 -140 24 -170 l12 -55 23 70 c13 39 51 128 84 199 l61 128 54
-5 c62 -7 65 -8 56 -30 -5 -15 -8 -15 -27 -2 -12 8 -28 15 -37 15 -8 0 2 -11
22 -25 l37 -25 3 -83 3 -82 27 58 c19 41 31 56 40 51 7 -4 37 -23 67 -42 102
-65 294 -152 331 -150 34 1 34 1 5 5 -57 8 -405 189 -405 210 0 4 11 26 25 50
l26 43 129 0 c86 0 148 -5 187 -16 41 -11 123 -17 273 -20 118 -3 220 -7 227
-9 10 -4 113 -194 113 -210 0 -3 -11 -5 -25 -5 -14 0 -25 -4 -25 -10 0 -5 13
-7 30 -4 25 5 31 3 39 -17 5 -13 17 -42 26 -64 17 -39 18 -39 25 -15 5 14 8
46 9 72 l1 47 58 17 c31 9 69 23 85 31 23 12 31 11 58 -2 36 -19 45 -15 30 14
-11 19 -6 23 56 54 38 18 98 52 134 75 36 23 69 42 72 42 8 0 44 -115 68 -220
12 -52 24 -108 28 -124 6 -27 10 -21 46 65 21 52 47 121 57 154 l18 60 -5 -95
c-4 -84 -41 -311 -60 -365 -4 -13 4 -8 24 15 17 19 31 32 31 29 0 -2 -11 -53
-24 -112 -26 -113 -94 -298 -147 -402 -22 -43 -26 -55 -13 -43 12 10 25 14 34
9 8 -5 27 -11 41 -15 26 -6 26 -5 21 39 -3 30 0 51 9 62 15 18 14 17 -38 -4
-7 -3 -13 -1 -13 4 0 10 31 88 84 210 19 45 40 100 46 122 6 23 20 46 31 52
12 6 18 17 15 25 -3 8 5 36 17 62 13 26 41 94 63 151 32 86 48 114 89 156 59
61 105 77 136 49 10 -9 31 -41 45 -71 27 -55 28 -66 8 -208 -3 -28 -3 -28 5
-5 5 14 9 40 10 58 1 17 6 32 11 32 6 0 30 -18 53 -39 l43 -39 -33 96 c-32 95
-43 192 -23 192 6 0 10 -4 10 -8 0 -13 55 -41 111 -56 30 -8 63 -18 74 -22 19
-8 20 -7 2 16 -27 37 -85 161 -92 196 l-6 31 68 -9 c94 -12 338 2 390 23 66
27 175 47 207 38 33 -10 83 -12 74 -4 -2 3 -30 10 -61 16 -51 9 -71 7 -190
-22 -122 -30 -145 -33 -300 -34 -126 0 -170 3 -176 13 -6 10 -18 8 -57 -9 -82
-36 -245 -38 -444 -4 -8 1 -62 -3 -120 -11 -58 -7 -180 -16 -273 -19 -92 -4
-182 -8 -200 -10 -17 -2 -156 -9 -307 -15 -294 -13 -465 -8 -533 15 -28 9
-114 16 -257 20 -118 3 -288 15 -377 26 -89 11 -175 19 -190 18 -52 -3 -387
21 -507 37 -136 17 -189 27 -266 49 -152 42 -182 47 -231 35 -61 -15 -134 -1
-199 38 -45 26 -46 27 -240 27 -186 0 -202 2 -352 35 -136 30 -158 38 -167 58
-6 13 -11 25 -11 28 0 3 28 18 63 34 95 44 267 86 597 144 47 9 139 27 205 40
66 14 131 25 144 26 13 0 53 7 90 14 36 8 143 27 236 41 94 14 174 30 180 36
10 10 9 10 -50 -1z m2460 -719 c-16 -14 -218 -128 -241 -135 -18 -5 -24 0 -37
36 -9 24 -19 55 -23 70 l-6 27 128 4 c71 1 142 4 159 5 17 1 25 -2 20 -7z
m-428 -43 c6 -13 32 -47 58 -76 26 -29 46 -54 44 -56 -8 -6 -121 -46 -130 -46
-5 0 -9 45 -9 100 0 77 3 100 13 100 8 0 18 -10 24 -22z"/>
<path d="M5344 2505 c40 -15 156 -33 146 -22 -3 3 -32 10 -65 16 -33 5 -73 12
-90 15 -23 5 -21 3 9 -9z"/>
<path d="M5525 2469 c17 -5 64 -13 105 -19 41 -5 107 -16 145 -24 39 -8 131
-27 205 -41 74 -14 167 -32 205 -40 39 -8 133 -26 210 -41 77 -14 166 -34 198
-44 31 -10 57 -15 57 -10 0 13 -139 49 -310 80 -91 17 -211 42 -267 56 -56 13
-152 31 -213 39 -61 8 -115 17 -119 19 -11 7 -197 36 -223 35 -19 -1 -18 -2 7
-10z"/>
<path d="M5555 2420 c11 -5 27 -9 35 -9 9 0 8 4 -5 9 -11 5 -27 9 -35 9 -9 0
-8 -4 5 -9z"/>
<path d="M1370 2330 c0 -8 85 -47 134 -61 49 -14 16 7 -61 39 -40 17 -73 27
-73 22z"/>
<path d="M1554 2321 c3 -5 16 -11 28 -14 22 -6 22 -5 4 8 -22 17 -40 20 -32 6z"/>
<path d="M5925 2313 c11 -11 117 -44 123 -39 2 2 -21 12 -50 21 -29 10 -60 20
-68 23 -10 3 -12 2 -5 -5z"/>
<path d="M1135 2251 c-14 -7 1 -10 55 -10 41 -1 100 -3 130 -6 46 -4 50 -3 25
5 -43 14 -186 22 -210 11z"/>
<path d="M1968 2247 c12 -14 72 -41 72 -32 0 3 -19 14 -42 26 -31 16 -39 17
-30 6z"/>
<path d="M1740 2246 c0 -2 7 -6 15 -10 8 -3 15 -1 15 4 0 6 -7 10 -15 10 -8 0
-15 -2 -15 -4z"/>
<path d="M6675 2240 c3 -5 13 -10 22 -10 9 0 47 -14 85 -32 61 -28 69 -34 66
-56 -2 -14 -10 -28 -18 -33 -28 -14 -314 -68 -390 -73 -41 -3 -121 0 -177 6
l-103 12 -73 -37 c-41 -20 -86 -37 -100 -37 -15 0 -27 -4 -27 -9 0 -15 72 5
143 39 l68 32 97 -12 c161 -21 328 -3 552 59 30 8 57 58 43 79 -5 9 -47 30
-94 48 -91 36 -103 39 -94 24z"/>
<path d="M1850 2224 c41 -8 80 -12 85 -10 16 5 -92 26 -128 25 -19 -1 -2 -7
43 -15z"/>
<path d="M1555 2201 c11 -5 56 -11 100 -15 44 -3 127 -17 185 -30 168 -39 166
-38 150 -28 -27 17 -172 53 -275 67 -111 16 -193 19 -160 6z"/>
<path d="M2225 2191 c11 -5 47 -11 80 -15 33 -4 69 -9 80 -12 16 -4 17 -3 5 4
-14 9 -144 33 -172 31 -7 0 -4 -4 7 -8z"/>
<path d="M6250 2169 c-19 -4 -66 -10 -103 -14 -38 -4 -67 -9 -64 -11 6 -6 198
13 205 20 10 11 -3 13 -38 5z"/>
<path d="M2064 2152 c-7 -4 40 -7 105 -8 89 -1 131 -6 181 -22 42 -13 58 -16
46 -7 -44 33 -295 61 -332 37z"/>
<path d="M5703 2153 c15 -2 37 -2 50 0 12 2 0 4 -28 4 -27 0 -38 -2 -22 -4z"/>
<path d="M5545 2140 c-12 -4 7 -6 45 -3 36 3 67 7 69 9 9 8 -95 2 -114 -6z"/>
<path d="M5808 2143 c12 -2 30 -2 40 0 9 3 -1 5 -23 4 -22 0 -30 -2 -17 -4z"/>
<path d="M3002 2115 c4 -4 79 -10 167 -14 107 -4 157 -3 150 4 -5 6 -81 12
-167 14 -86 1 -154 0 -150 -4z"/>
<path d="M6250 2110 c-35 -7 -35 -7 10 -8 25 0 54 3 65 8 17 7 15 8 -10 8 -16
0 -46 -4 -65 -8z"/>
<path d="M2470 2086 c28 -17 50 -21 35 -7 -6 5 -21 12 -35 15 l-25 7 25 -15z"/>
<path d="M5638 2083 c23 -2 61 -2 85 0 23 2 4 4 -43 4 -47 0 -66 -2 -42 -4z"/>
<path d="M4230 2074 c32 -6 244 -10 220 -3 -14 4 -72 7 -130 7 -58 0 -98 -2
-90 -4z"/>
<path d="M2965 2059 c-22 -5 -44 -15 -50 -21 -7 -8 -3 -9 15 -4 14 4 88 13
165 20 l140 13 -115 1 c-63 0 -133 -4 -155 -9z"/>
<path d="M3290 2051 c19 -11 261 -54 267 -47 7 6 -21 13 -146 36 -125 22 -144
24 -121 11z"/>
<path d="M5044 2048 c33 -5 68 -6 78 -1 12 5 -10 9 -59 9 l-78 2 59 -10z"/>
<path d="M4260 2040 c14 -4 79 -8 145 -7 l120 0 -90 8 c-124 10 -208 9 -175
-1z"/>
<path d="M4790 2019 c0 -5 5 -7 10 -4 6 3 10 8 10 11 0 2 -4 4 -10 4 -5 0 -10
-5 -10 -11z"/>
<path d="M4833 2023 c9 -2 25 -2 35 0 9 3 1 5 -18 5 -19 0 -27 -2 -17 -5z"/>
<path d="M3656 1702 c-8 -13 50 -98 84 -122 46 -33 47 -23 3 23 -23 23 -50 57
-61 75 -11 19 -22 29 -26 24z"/>
<path d="M3371 1618 l-20 -43 24 28 c14 15 25 35 25 43 0 23 -7 16 -29 -28z"/>
<path d="M4933 1653 c-28 -10 -252 -308 -240 -319 3 -3 22 19 43 49 32 46 45
56 75 61 20 3 47 15 60 26 28 23 19 26 -19 6 -15 -7 -38 -17 -51 -21 l-24 -7
23 32 c31 44 140 160 150 160 4 0 13 -13 19 -30 14 -40 22 -38 10 2 -5 18 -9
34 -9 34 0 6 -27 10 -37 7z"/>
<path d="M2050 1569 c0 -19 4 -41 9 -48 6 -10 8 1 4 30 -7 55 -13 63 -13 18z"/>
<path d="M3030 1583 c14 -10 53 -39 87 -65 34 -25 59 -40 57 -33 -6 14 -104
85 -144 104 l-25 12 25 -18z"/>
<path d="M4059 1556 c-103 -69 -174 -160 -185 -236 l-6 -45 26 50 c51 100 152
169 275 188 91 14 155 0 246 -54 37 -21 70 -38 72 -36 2 3 -13 19 -34 37 -43
38 -121 75 -178 83 -58 9 -189 -17 -256 -50 -75 -37 -66 -25 32 43 68 48 87
64 76 64 -1 0 -32 -20 -68 -44z"/>
<path d="M3674 1565 c11 -8 24 -15 30 -15 5 0 1 7 -10 15 -10 8 -23 14 -29 14
-5 0 -1 -6 9 -14z"/>
<path d="M2140 1540 c0 -11 5 -20 10 -20 6 0 10 9 10 20 0 11 -4 20 -10 20 -5
0 -10 -9 -10 -20z"/>
<path d="M2830 1534 c-61 -17 -125 -51 -154 -83 -31 -34 -15 -32 44 5 76 48
149 68 225 61 131 -12 240 -77 292 -173 24 -43 33 -53 33 -36 0 42 -68 165
-88 160 -4 -1 -25 7 -47 19 -96 50 -223 70 -305 47z"/>
<path d="M5009 1358 c-6 -13 -23 -43 -37 -67 -15 -25 -21 -41 -14 -37 13 8 76
126 67 126 -2 0 -10 -10 -16 -22z"/>
<path d="M3488 1270 c2 -44 -1 -104 -7 -132 -14 -61 -7 -76 9 -21 15 55 24
155 16 197 -12 62 -21 39 -18 -44z"/>
<path d="M4777 1320 c13 -27 13 -36 -2 -85 -14 -45 -31 -68 -101 -136 -47 -45
-83 -83 -81 -85 2 -2 38 28 81 67 109 101 152 198 112 252 -21 27 -26 20 -9
-13z"/>
<path d="M4685 1246 c-5 -34 -24 -73 -59 -125 -69 -101 -72 -106 -57 -97 20
13 107 149 120 188 7 21 11 48 9 60 -3 15 -7 6 -13 -26z"/>
<path d="M4424 1193 c8 -24 -6 -30 -127 -58 -84 -19 -87 -19 -87 0 0 8 -5 15
-10 15 -6 0 -10 -8 -8 -17 2 -15 -9 -20 -67 -30 l-70 -12 73 2 c66 2 72 0 73
-18 0 -19 1 -18 11 3 6 12 23 25 37 28 14 3 62 16 105 29 74 22 81 23 93 7 11
-15 12 -14 11 8 -1 14 -11 34 -21 45 -19 20 -19 20 -13 -2z"/>
<path d="M4865 1148 l-50 -52 46 39 c39 33 66 65 56 65 -2 0 -25 -23 -52 -52z"/>
<path d="M4772 1069 c-19 -17 -32 -32 -30 -35 3 -2 20 12 38 31 42 43 37 45
-8 4z"/>
<path d="M3460 1063 c0 -12 38 -48 45 -41 3 2 -6 15 -20 28 -14 13 -25 19 -25
13z"/>
<path d="M3640 1040 c-12 -8 -9 -10 13 -10 15 0 27 5 27 10 0 13 -20 13 -40 0z"/>
<path d="M4305 1023 c-33 -14 -78 -31 -100 -38 -36 -13 -37 -14 -7 -9 18 3 60
17 92 30 33 13 62 24 64 24 6 0 -14 -69 -39 -135 -17 -42 -25 -50 -69 -70 -28
-12 -81 -30 -119 -40 -37 -10 -66 -20 -64 -22 2 -2 45 5 96 15 59 12 90 15 88
8 -6 -20 -171 -125 -247 -157 -250 -107 -533 -116 -782 -25 -131 47 -140 50
-81 21 80 -40 248 -86 341 -95 150 -13 348 17 510 80 81 31 235 127 262 163
51 69 72 107 95 178 15 43 25 83 23 87 -2 5 -30 -2 -63 -15z"/>
<path d="M4682 994 c-24 -19 -39 -34 -34 -34 5 0 26 16 48 35 50 44 42 44 -14
-1z"/>
<path d="M2751 1002 c-2 -33 58 -131 121 -198 65 -68 152 -135 195 -151 10 -3
-9 12 -42 35 -71 49 -160 130 -152 138 3 3 42 -6 87 -21 44 -16 83 -25 86 -22
3 2 -23 14 -58 26 -35 12 -91 39 -126 61 -51 33 -66 49 -86 92 -14 29 -25 47
-25 40z"/>
<path d="M2830 992 c32 -20 229 -82 310 -96 118 -21 277 -36 325 -31 22 3 72
9 110 15 39 5 117 15 175 21 140 14 348 46 385 59 28 9 27 10 -10 5 -22 -3
-76 -12 -120 -19 -44 -8 -190 -27 -325 -41 -339 -37 -480 -27 -723 51 -152 49
-145 48 -127 36z"/>
<path d="M4600 945 c-14 -8 -20 -14 -14 -15 5 0 19 7 30 15 24 18 16 19 -16 0z"/>
<path d="M4399 753 c-13 -16 -12 -17 4 -4 9 7 17 15 17 17 0 8 -8 3 -21 -13z"/>
<path d="M4324 668 l-19 -23 23 19 c21 18 27 26 19 26 -2 0 -12 -10 -23 -22z"/>
<path d="M4125 543 c-27 -15 -97 -43 -155 -64 -117 -42 -120 -53 -4 -14 73 25
214 90 214 100 0 7 1 7 -55 -22z"/>
<path d="M3090 515 c14 -8 30 -14 35 -14 6 0 -1 6 -15 14 -14 8 -29 14 -35 14
-5 0 1 -6 15 -14z"/>
<path d="M3150 490 c8 -5 20 -10 25 -10 6 0 3 5 -5 10 -8 5 -19 10 -25 10 -5
0 -3 -5 5 -10z"/>
<path d="M3485 471 c17 -18 108 -30 149 -21 57 13 52 16 -27 16 -40 -1 -85 3
-102 7 -21 6 -27 5 -20 -2z"/>
<path d="M3665 380 c-13 -6 -15 -9 -5 -9 8 0 22 4 30 9 18 12 2 12 -25 0z"/>
</g>
</svg>
